<svg xmlns="http://www.w3.org/2000/svg" width="256" height="256" viewBox="0 0 100 100"><rect width="100" height="100" rx="20" fill="#7d6ee7"></rect><path fill="#fff" d="M12.52 77.58L12.52 77.58Q10.81 77.58 9.68 76.50Q8.56 75.42 8.56 73.63L8.56 73.63L8.56 23.04Q9.01 22.86 9.95 22.64Q10.90 22.41 11.98 22.41L11.98 22.41Q15.94 22.41 15.94 25.74L15.94 25.74L15.94 71.28L41.77 71.28Q42.76 72.27 42.76 74.25L42.76 74.25Q42.76 75.78 41.95 76.68Q41.14 77.58 39.79 77.58L39.79 77.58L12.52 77.58ZM89.11 22.86L89.11 22.86Q89.83 23.49 90.32 24.39Q90.81 25.29 90.81 26.28L90.81 26.28Q90.81 27.54 90.32 28.53Q89.83 29.52 88.93 30.78L88.93 30.78L59.32 71.38L90.55 71.38Q90.91 71.82 91.18 72.59Q91.44 73.35 91.44 74.34L91.44 74.34Q91.44 75.88 90.68 76.73Q89.92 77.58 88.66 77.58L88.66 77.58L51.85 77.58Q51.13 76.95 50.63 76.05Q50.14 75.16 50.14 74.16L50.14 74.16Q50.14 72.91 50.63 71.91Q51.13 70.92 52.03 69.66L52.03 69.66L81.64 29.07L51.67 29.07Q51.40 28.62 51.08 27.86Q50.77 27.09 50.77 26.10L50.77 26.10Q50.77 24.57 51.53 23.72Q52.30 22.86 53.65 22.86L53.65 22.86L89.11 22.86Z"></path></svg>